<?xml version="1.0" standalone="no"?><svg xmlns="http://www.w3.org/2000/svg" viewBox="0 0 1440 320"><path fill="#C4F2EA" fill-opacity="1" d="M0,0L26.7,42.7C53.3,85,107,171,160,186.7C213.3,203,267,149,320,112C373.3,75,427,53,480,64C533.3,75,587,117,640,117.3C693.3,117,747,75,800,90.7C853.3,107,907,181,960,202.7C1013.3,224,1067,192,1120,186.7C1173.3,181,1227,203,1280,213.3C1333.3,224,1387,224,1413,224L1440,224L1440,320L1413.3,320C1386.7,320,1333,320,1280,320C1226.7,320,1173,320,1120,320C1066.7,320,1013,320,960,320C906.7,320,853,320,800,320C746.7,320,693,320,640,320C586.7,320,533,320,480,320C426.7,320,373,320,320,320C266.7,320,213,320,160,320C106.7,320,53,320,27,320L0,320Z"></path></svg>